<svg width="200" height="120" viewBox="0 0 200 120" fill="none" xmlns="http://www.w3.org/2000/svg">
<rect width="200" height="120" fill="#F0F0F0"/>
<rect x="20" y="20" width="160" height="80" fill="#FFFFFF" stroke="#CCCCCC" stroke-width="1"/>
<rect x="30" y="30" width="20" height="15" fill="#4CAF50"/>
<rect x="55" y="30" width="20" height="15" fill="#2196F3"/>
<rect x="80" y="30" width="20" height="15" fill="#FF9800"/>
<rect x="105" y="30" width="20" height="15" fill="#9C27B0"/>
<rect x="130" y="30" width="20" height="15" fill="#F44336"/>
<rect x="155" y="30" width="20" height="15" fill="#795548"/>
<rect x="30" y="50" width="20" height="15" fill="#607D8B"/>
<rect x="55" y="50" width="20" height="15" fill="#E91E63"/>
<rect x="80" y="50" width="20" height="15" fill="#00BCD4"/>
<rect x="105" y="50" width="20" height="15" fill="#8BC34A"/>
<rect x="130" y="50" width="20" height="15" fill="#FFC107"/>
<rect x="155" y="50" width="20" height="15" fill="#3F51B5"/>
<rect x="30" y="70" width="20" height="15" fill="#FF5722"/>
<rect x="55" y="70" width="20" height="15" fill="#009688"/>
<rect x="80" y="70" width="20" height="15" fill="#673AB7"/>
<rect x="105" y="70" width="20" height="15" fill="#CDDC39"/>
<rect x="130" y="70" width="20" height="15" fill="#FFEB3B"/>
<rect x="155" y="70" width="20" height="15" fill="#9E9E9E"/>
</svg>
